<svg width="115" height="33" viewBox="0 0 115 33" fill="none" xmlns="http://www.w3.org/2000/svg">
<path d="M0 13V16H3V13H0Z" fill="black"/>
<path d="M11.9972 5C10.4299 5 8.78273 4.96774 7.99907 6V0H6V16H7.99907V11C7.99907 8.83226 9.03852 7 10.9977 7C12.7609 7 13.9963 8.14194 13.9963 10V16H15.9953V10C16.0933 6.90323 14.6421 5 11.9972 5Z" fill="black"/>
<path d="M27 5H22V1H20V5H18V7H20V13C20 14.7586 21.2414 16 23 16H27V14H23C22.2759 14 22 13.7241 22 13V7H27V5Z" fill="black"/>
<path d="M40.9967 5C39.3976 5 38.5972 5.67593 37.9975 7H36.9978C36.3981 5.77778 35.5977 5 33.9986 5C32.5994 5 31.5991 5.98148 30.9994 7V5H29V16H30.9994V11C30.9994 8.96296 32.3995 7 33.9986 7C35.4978 7 35.9981 8.37037 35.9981 10V16H37.9975V10C37.9975 7.55556 39.7974 7 40.9967 7C42.4958 7 42.9961 8.37037 42.9961 10V16H44.9956V9C45.0955 6.4537 43.4953 5 40.9967 5Z" fill="black"/>
<path d="M48 12C48 13.6558 49.125 15 51 15H53V13H51C50.2708 13 50 12.6818 50 12V0H48V12Z" fill="black"/>
<path d="M29 20C28.1239 18.9196 26.6549 18 25 18C21.9823 18 20 20.7589 20 24C20 27.2411 21.9823 29 25 29C26.7522 29 28.2212 28.0804 29 27V29H31V18H29V20ZM26 27C23.8584 27 22 25.9643 22 24C22 22.0357 23.8584 20 26 20C28.1416 20 29 22.0357 29 24C29 25.8661 28.1416 27 26 27Z" fill="black"/>
<path d="M44 22C43.5 19.6429 41.8 18 39 18C35.6 18 33 20.9554 33 24C33 27.0446 35.6 29 39 29C41.8 29 43.5 27.3571 44 25H42C41.6 26.2768 40.6 27 39 27C36.8 27 35 25.9643 35 24C35 22.0357 36.8 20 39 20C40.6 20 41.5 20.8214 42 22H44Z" fill="black"/>
<path d="M55 20C54.1239 18.9196 52.6549 18 51 18C47.9823 18 46 20.7589 46 24C46 27.2411 47.9823 29 51 29C52.7522 29 54.2212 28.0804 55 27V29H57V18H55V20ZM52 27C49.8584 27 48 25.9643 48 24C48 22.0357 49.8584 20 52 20C54.1416 20 55 22.0357 55 24C55 25.8661 54.0442 27 52 27Z" fill="black"/>
<path d="M68 20C67.1239 18.879 65.6549 18 64 18C60.9823 18 59 19.6369 59 23C59 26.3631 60.885 29 64 29C65.6549 29 67.2212 28.0191 68 27V29H70V13H68V20ZM65 27C62.8584 27 61 25.0382 61 23C61 20.9618 62.8584 20 65 20C67.1416 20 68 20.9618 68 23C67.9027 25.0382 67.0442 27 65 27Z" fill="black"/>
<path d="M77.9953 18C74.7022 18 73 20.9554 73 24C73 26.9464 74.6024 29 77.9953 29C80.4901 29 83.2911 27.2589 83.9896 25H81.9915C81.4925 25.9821 80.3914 27 78.9943 27C77.0983 27 75.0979 25.5714 74.9981 24H83.9896C84.1892 20.4643 81.488 18 77.9953 18ZM77.9953 20C79.6917 20 81.6921 20.4286 81.9915 22H74.9981C75.2975 20.5268 76.2988 20 77.9953 20Z" fill="black"/>
<path d="M97.9967 18C96.3976 18 94.6974 18.789 93.9978 20C93.3981 18.789 92.5977 18 90.9986 18C89.5994 18 88.5991 18.8899 87.9994 20V18H86V29H87.9994V24C87.9994 21.9817 89.3995 20.1009 90.9986 20C92.4978 20 92.9981 21.3853 92.9981 23V29H94.9975V23C94.9975 20.578 96.7974 20 97.9967 20C99.4958 20 99.9961 21.3853 99.9961 23V29H101.996V22C102.096 19.3761 100.495 18 97.9967 18Z" fill="black"/>
<path d="M110 27L106 18H104L109 30C108.708 30.9122 107.973 31 107 31H105V33H107C108.752 33 109.319 31.8243 110 30L115 18H113L110 27Z" fill="black"/>
</svg>
